<?xml version="1.0" encoding="UTF-8"?>
<svg width="320px" height="1000px" viewBox="0 0 320 1000" version="1.1" xmlns="http://www.w3.org/2000/svg" xmlns:xlink="http://www.w3.org/1999/xlink">
    <!-- Generator: Sketch 52.4 (67378) - http://www.bohemiancoding.com/sketch -->
    <title>Side Pattern</title>
    <desc>Created with Sketch.</desc>
    <g id="Page-1" stroke="none" stroke-width="1" fill="none" fill-rule="evenodd" fill-opacity="0.061792346">
        <g id="Login---Initial" transform="translate(-1120.000000, 0.000000)" fill="#FFFFFF">
            <g id="Side-Pattern" transform="translate(1120.000000, -457.000000)">
                <polygon id="Fill-14" points="512 688.692308 512 663 127 663 127 688.692308 127 714.384615 127 740.076923 486.333333 740.076923 486.333333 765.769231 383.666667 765.769231 358 765.769231 358 971.307692 332.333333 971.307692 332.333333 765.769231 306.666667 765.769231 281 765.769231 255.333333 765.769231 255.333333 997 281 997 281 791.461538 306.666667 791.461538 306.666667 997 332.333333 997 358 997 383.666667 997 383.666667 791.461538 512 791.461538 512 765.769231 512 740.076923 512 714.384615 152.666667 714.384615 152.666667 688.692308"></polygon>
                <polygon id="Fill-15" points="127 612.307692 127 638 512 638 512 612.307692 512 586.615385 512 560.923077 152.666667 560.923077 152.666667 535.230769 255.333333 535.230769 281 535.230769 281 329.692308 306.666667 329.692308 306.666667 535.230769 332.333333 535.230769 358 535.230769 383.666667 535.230769 383.666667 304 358 304 358 509.538462 332.333333 509.538462 332.333333 304 306.666667 304 281 304 255.333333 304 255.333333 509.538462 127 509.538462 127 535.230769 127 560.923077 127 586.615385 486.333333 586.615385 486.333333 612.307692"></polygon>
                <polygon id="Fill-23" points="0 1379 0 1404.69231 0 1430.38462 0 1456.07692 359.333333 1456.07692 359.333333 1481.76923 256.666667 1481.76923 231 1481.76923 231 1687.30769 205.333333 1687.30769 205.333333 1481.76923 179.666667 1481.76923 154 1481.76923 128.333333 1481.76923 128.333333 1713 154 1713 154 1507.46154 179.666667 1507.46154 179.666667 1713 205.333333 1713 231 1713 256.666667 1713 256.666667 1507.46154 385 1507.46154 385 1481.76923 385 1456.07692 385 1430.38462 25.6666667 1430.38462 25.6666667 1404.69231 385 1404.69231 385 1379"></polygon>
                <polygon id="Fill-24" points="231 1020 231 1225.53846 205.333333 1225.53846 205.333333 1020 179.666667 1020 154 1020 128.333333 1020 128.333333 1225.53846 0 1225.53846 0 1251.23077 0 1276.92308 0 1302.61667 359.333333 1302.61667 359.333333 1328.30769 0 1328.30769 0 1354 385 1354 385 1328.30769 385 1302.61667 385 1276.92308 25.6666667 1276.92308 25.6666667 1251.23077 128.333333 1251.23077 154 1251.23077 154 1045.69231 179.666667 1045.69231 179.666667 1251.23077 205.333333 1251.23077 231 1251.23077 256.666667 1251.23077 256.666667 1020"></polygon>
                <polygon id="Fill-25" points="667 1199.69231 667 1174 282 1174 282 1199.69231 282 1225.38462 282 1251.07692 641.333333 1251.07692 641.333333 1276.76923 538.666667 1276.76923 513 1276.76923 513 1482.30769 487.333333 1482.30769 487.333333 1276.76923 461.666667 1276.76923 436 1276.76923 410.333333 1276.76923 410.333333 1508 436 1508 436 1302.46154 461.666667 1302.46154 461.666667 1508 487.333333 1508 513 1508 538.666667 1508 538.666667 1302.46154 667 1302.46154 667 1276.76923 667 1251.07692 667 1225.38462 307.666667 1225.38462 307.666667 1199.69231"></polygon>
                <polygon id="Fill-26" points="282 1123.30769 282 1149 667 1149 667 1123.30769 667 1097.61538 667 1071.92308 307.666667 1071.92308 307.666667 1046.23077 410.333333 1046.23077 436 1046.23077 436 840.692308 461.666667 840.692308 461.666667 1046.23077 487.333333 1046.23077 513 1046.23077 538.666667 1046.23077 538.666667 815 513 815 513 1020.53846 487.333333 1020.53846 487.333333 815 461.666667 815 436 815 410.333333 815 410.333333 1020.53846 282 1020.53846 282 1046.23077 282 1071.92308 282 1097.61538 641.333333 1097.61538 641.333333 1123.30769"></polygon>
            </g>
        </g>
    </g>
</svg>