<?xml version="1.0" encoding="UTF-8"?>
<svg width="32px" height="32px" viewBox="0 0 32 32" version="1.1" xmlns="http://www.w3.org/2000/svg" xmlns:xlink="http://www.w3.org/1999/xlink">
    <!-- Generator: Sketch 51.3 (57544) - http://www.bohemiancoding.com/sketch -->
    <title>Icon/32/View</title>
    <desc>Created with Sketch.</desc>
    <defs>
        <path d="M16,13 C17.4050909,13 18.5454545,14.1403636 18.5454545,15.5454545 C18.5454545,16.9505455 17.4050909,18.0909091 16,18.0909091 C14.5949091,18.0909091 13.4545455,16.9505455 13.4545455,15.5454545 C13.4545455,14.1403636 14.5949091,13 16,13 Z M16,10.4545455 C13.1943434,10.4545455 10.9090909,12.739798 10.9090909,15.5454545 C10.9090909,18.3511111 13.1943434,20.6363636 16,20.6363636 C18.8056566,20.6363636 21.0909091,18.3511111 21.0909091,15.5454545 C21.0909091,12.739798 18.8056566,10.4545455 16,10.4545455 Z M16,8.54545455 C20.8236364,8.54545455 25.1254545,11.2563636 27.2254545,15.5454545 C25.1254545,19.8345455 20.8236364,22.5454545 16,22.5454545 C11.1763636,22.5454545 6.87454545,19.8345455 4.77454545,15.5454545 C6.87454545,11.2563636 11.1763636,8.54545455 16,8.54545455 Z M16,6 C9.63636364,6 4.20181818,9.95818182 2,15.5454545 C4.20181818,21.1327273 9.63636364,25.0909091 16,25.0909091 C22.3636364,25.0909091 27.7981818,21.1327273 30,15.5454545 C27.7981818,9.95818182 22.3636364,6 16,6 Z" id="path-1"></path>
    </defs>
    <g id="Icon/32/View" stroke="none" stroke-width="1" fill="none" fill-rule="evenodd">
        <mask id="mask-2" fill="white">
            <use xlink:href="#path-1"></use>
        </mask>
        <g id="Combined-Shape" fill-rule="nonzero"></g>
        <g id="Color/#FFFFFF" mask="url(#mask-2)" fill="#FFFFFF">
            <rect id="Color" x="0" y="0" width="32" height="32"></rect>
        </g>
    </g>
</svg>